# xmcd
#
# Track frame offsets:
#	150
#	12782
#	24296
#	35268
#	48153
#	59567
#	72363
#	84468
#	98176
#	110841
#	123883
#	135956
#	147986
#	161273
#	175309
#	186736
#	198331
#	210062
#	220459
#	232578
#	245436
#	258340
#	272555
#	283679
#
# Disc length: 3945 seconds
#
# Revision: 1
# Processed by: cddbd v1.5.2PL0 Copyright (c) Steve Scherf et al.
# Submitted via: audiograbber 1.83.01
#
DISCID=4d0f6718
DTITLE=The Greatest Country Music Recordings Of All Time - Record 91 and 92
DYEAR=1900
DGENRE=
TTITLE0=Bar-X Cowboys - Blue Bonnet Governor
TTITLE1=Shelly Lee and His Alley Cats - Alley Cat Stomp
TTITLE2=Light Crust Doughboys - Blue Guitars
TTITLE3=Ocie Stockard - To My House
TTITLE4=Sunshine Boys - Pipe Line Blues
TTITLE5=Bill Boyd and His Cowboy Ramblers - Under The Double Eagle
TTITLE6=Hi-Flyers - Roadside Rag
TTITLE7=Bill Boyd and His Cowboy Ramblers - Show Me The Way To Go Home
TTITLE8=Leon's Lone Star Cowboys - White River Stomp
TTITLE9=Village Boys - I'll Come Back To You
TTITLE10=Swift Jewel Cowboys - Dill Pickle Rag
TTITLE11=Light Crust Doughboys - The Eyes Of Texas
TTITLE12=Roy Newman and His Boys - Corinne Corinna
TTITLE13=Cliff Bruner and His Boys - Jessie
TTITLE14=W. Lee O'Daniel and His Hillbilly Boys - Please Pass The Biscuits Papp
TTITLE14=y
TTITLE15=Universal Cowboys - Steel Guitar Honky Tonk
TTITLE16=Crystal Springs Ramblers - Swingin' To Glory
TTITLE17=Bill Boyd and His Cowboy Ramblers - Jig
TTITLE18=Bar-X Cowboys - Blue Steel Blues
TTITLE19=Sons Of The West - Oh Monah!
TTITLE20=Adolph Hefner and His San Antonians - Cotton Eyed Joe
TTITLE21=W. Lee O'Daniel and His Hillbilly Boys - My Million Dollar Smile
TTITLE22=Nite Owls - Ma, She's Making Eyes At Me
TTITLE23=Tune Wranglers - Hawaiian Honeymoon
EXTD=
EXTT0=
EXTT1=
EXTT2=
EXTT3=
EXTT4=
EXTT5=
EXTT6=
EXTT7=
EXTT8=
EXTT9=
EXTT10=
EXTT11=
EXTT12=
EXTT13=
EXTT14=
EXTT15=
EXTT16=
EXTT17=
EXTT18=
EXTT19=
EXTT20=
EXTT21=
EXTT22=
EXTT23=
PLAYORDER=
